<?xml version="1.0" standalone="no"?>
<!DOCTYPE svg PUBLIC "-//W3C//DTD SVG 20010904//EN"
 "http://www.w3.org/TR/2001/REC-SVG-20010904/DTD/svg10.dtd">
<svg version="1.0" xmlns="http://www.w3.org/2000/svg"
 width="244.000000pt" height="244.000000pt" viewBox="0 0 244.000000 244.000000"
 preserveAspectRatio="xMidYMid meet">

<g transform="translate(0.000000,244.000000) scale(0.100000,-0.100000)"
fill="#000000" stroke="none">
<path d="M1036 2414 c-315 -49 -603 -226 -797 -489 -29 -38 -76 -119 -105
-180 -283 -586 -53 -1284 526 -1593 172 -92 352 -136 560 -136 322 0 604 114
835 335 47 45 85 86 85 90 0 5 -70 67 -156 139 l-157 131 -56 -55 c-74 -73
-131 -113 -216 -152 -133 -60 -175 -69 -340 -68 -140 0 -156 3 -236 30 -172
60 -308 162 -410 307 -221 315 -174 752 110 1020 312 294 783 289 1093 -11 49
-47 71 -62 80 -55 125 97 308 247 308 252 0 16 -169 177 -235 223 -257 182
-583 260 -889 212z"/>
<path d="M2065 1759 c-94 -60 -170 -113 -170 -117 1 -15 29 -62 37 -62 4 0 89
41 188 90 l180 90 -25 49 c-13 27 -28 52 -33 54 -4 3 -84 -44 -177 -104z"/>
<path d="M2149 1567 l-187 -71 13 -36 c9 -26 17 -34 31 -32 19 3 377 94 381
97 8 5 -32 115 -41 114 -6 0 -95 -32 -197 -72z"/>
<path d="M2180 1361 l-175 -26 3 -40 c2 -22 5 -41 5 -41 4 -4 410 16 414 19 2
2 1 30 -3 61 -8 67 9 66 -244 27z"/>
<path d="M2006 1131 c-3 -19 -3 -37 -1 -39 8 -8 398 -72 404 -67 3 3 8 30 11
60 l6 55 -30 1 c-17 0 -110 6 -208 12 l-176 12 -6 -34z"/>
<path d="M1971 968 c-6 -17 -9 -33 -6 -36 4 -4 373 -152 379 -152 5 0 40 109
35 113 -6 5 -374 107 -386 107 -6 0 -16 -14 -22 -32z"/>
<path d="M1906 825 c-9 -13 -16 -28 -16 -34 0 -9 340 -235 345 -229 1 2 14 23
28 47 l26 45 -57 31 c-31 17 -114 61 -184 98 l-126 67 -16 -25z"/>
</g>
</svg>
